Coordinates
version=1
nRows=32
nColumns=12
inDegrees=yes

Units are S.I. units (second, meters, Newtons, ...)
Angles are in degrees

endheader
time	SC_y	SC_z	SC_x	AC_y	AC_z	AC_x	GH_y	GH_z	GH_yy	EL_x	PS_y
       0.0               -41.4          26.14          56.57          43.01         -9.937         -16.04          45.36          59.12         -3.122          131.7          136.7
   0.03793              -41.39          26.14          56.57          43.01         -9.936         -16.04          45.34          59.12         -3.123          131.7          136.7
   0.07586              -41.39          26.15          56.57          43.02         -9.936         -16.03          45.31          59.13         -3.125          131.7          136.7
    0.1138              -41.38          26.15          56.57          43.02         -9.935         -16.03          45.28          59.13         -3.126          131.7          136.6
    0.1517              -41.38          26.15          56.57          43.03         -9.934         -16.03          45.25          59.13         -3.128          131.7          136.6
    0.1896              -41.37          26.15          56.57          43.03         -9.932         -16.03          45.22          59.13          -3.13          131.7          136.6
    0.2276              -41.37          26.15          56.57          43.04         -9.931         -16.02          45.18          59.13         -3.131          131.7          136.6
    0.2655              -41.36          26.15          56.57          43.04          -9.93         -16.02          45.14          59.13         -3.133          131.7          136.6
    0.3034              -41.36          26.15          56.57          43.05         -9.929         -16.02           45.1          59.13         -3.135          131.7          136.6
    0.3414              -41.35          26.16          56.57          43.05         -9.927         -16.01          45.06          59.14         -3.138          131.7          136.6
    0.3793              -41.34          26.16          56.57          43.06         -9.926         -16.01          45.01          59.14          -3.14          131.7          136.6
    0.4172              -41.33          26.16          56.57          43.07         -9.924          -16.0          44.96          59.14         -3.143          131.7          136.6
    0.4551              -41.32          26.16          56.57          43.08         -9.922          -16.0          44.91          59.14         -3.146          131.6          136.6
    0.4931              -41.31          26.16          56.57          43.09          -9.92          -16.0          44.85          59.15         -3.149          131.6          136.6
     0.531               -41.3          26.17          56.57           43.1         -9.918         -15.99          44.78          59.15         -3.152          131.6          136.5
    0.5689              -41.29          26.17          56.57          43.11         -9.916         -15.98          44.72          59.15         -3.155          131.6          136.5
    0.6068              -41.28          26.17          56.57          43.12         -9.913         -15.98          44.64          59.15         -3.159          131.6          136.5
    0.6448              -41.27          26.18          56.57          43.13         -9.911         -15.97          44.56          59.16         -3.163          131.6          136.5
    0.6827              -41.25          26.18          56.57          43.14         -9.908         -15.96          44.47          59.16         -3.168          131.5          136.5
    0.7206              -41.24          26.18          56.57          43.16         -9.904         -15.96          44.37          59.17         -3.173          131.5          136.5
    0.7586              -41.22          26.19          56.57          43.17         -9.901         -15.95          44.27          59.17         -3.179          131.5          136.4
    0.7965               -41.2          26.19          56.58          43.19         -9.897         -15.94          44.15          59.17         -3.185          131.5          136.4
    0.8344              -41.18           26.2          56.58          43.21         -9.893         -15.93          44.02          59.18         -3.192          131.5          136.4
    0.8723              -41.16           26.2          56.58          43.23         -9.888         -15.92          43.87          59.19         -3.199          131.4          136.3
    0.9103              -41.13          26.21          56.58          43.26         -9.882          -15.9          43.71          59.19         -3.207          131.4          136.3
    0.9482               -41.1          26.22          56.58          43.29         -9.876         -15.89          43.54           59.2         -3.217          131.4          136.3
    0.9861              -41.07          26.23          56.58          43.32          -9.87         -15.87          43.34          59.21         -3.227          131.3          136.2
     1.024              -41.03          26.24          56.58          43.35         -9.862         -15.85          43.11          59.22         -3.239          131.3          136.2
     1.062              -40.99          26.25          56.58          43.39         -9.854         -15.83          42.86          59.23         -3.252          131.2          136.1
       1.1              -40.94          26.26          56.59          43.43         -9.844         -15.81          42.57          59.24         -3.267          131.1          136.1
     1.138              -40.89          26.27          56.59          43.48         -9.833         -15.78          42.24          59.25         -3.284          131.1          136.0
     1.176              -40.83          26.29          56.59          43.54         -9.821         -15.75          41.86          59.27         -3.303          131.0          135.9
